<svg xmlns="http://www.w3.org/2000/svg" width="96" height="96" viewBox="0 0 24 24" fill="#FFFFFF"><rect x="8.6" y="2.4" width="6.8" height="2.9" rx="1"/><path fill-rule="evenodd" d="M2.6 13.4 4.8 8.7A2.3 2.3 0 0 1 6.9 7.4h10.2a2.3 2.3 0 0 1 2.1 1.3l2.2 4.7v4a1.3 1.3 0 0 1-1.3 1.3h-1.4a1.3 1.3 0 0 1-1.3-1.3v-.5H6.7v.5a1.3 1.3 0 0 1-1.3 1.3H4a1.3 1.3 0 0 1-1.3-1.3zM5.2 14.9a1.4 1.4 0 1 0 2.8 0 1.4 1.4 0 0 0-2.8 0zM16 14.9a1.4 1.4 0 1 0 2.8 0 1.4 1.4 0 0 0-2.8 0zM5.5 12.2h5.6V9.1H7z M12.9 12.2h5.6L17 9.1h-4.1z"/></svg>
