<svg xmlns="http://www.w3.org/2000/svg" width="192" height="192" viewBox="0 0 96 96">
  <!-- Schreck: großes Ausrufezeichen (AC-Stil)  weißer Halo, kräftiges Rot, dunkle Kontur -->
  <g stroke-linejoin="round" stroke-linecap="round">
    <g stroke="#FFFFFF" stroke-width="14" fill="#FFFFFF">
      <path d="M48 10 C57 10 60 15 59 24 L55 52 C54.4 57 51.5 59 48 59 C44.5 59 41.6 57 41 52 L37 24 C36 15 39 10 48 10 Z"/>
      <circle cx="48" cy="77" r="9.5"/>
    </g>
    <g stroke="#5B1F16" stroke-width="4" fill="#FF4B3E">
      <path d="M48 10 C57 10 60 15 59 24 L55 52 C54.4 57 51.5 59 48 59 C44.5 59 41.6 57 41 52 L37 24 C36 15 39 10 48 10 Z"/>
      <circle cx="48" cy="77" r="9.5"/>
    </g>
  </g>
</svg>
